<?xml version="1.0" encoding="UTF-8" standalone="no"?>
<!DOCTYPE svg PUBLIC "-//W3C//DTD SVG 1.1//EN" "http://www.w3.org/Graphics/SVG/1.1/DTD/svg11.dtd">
<svg width="100%" height="100%" viewBox="0 0 434 131" version="1.1" xmlns="http://www.w3.org/2000/svg" xmlns:xlink="http://www.w3.org/1999/xlink" xml:space="preserve" xmlns:serif="http://www.serif.com/" style="fill-rule:evenodd;clip-rule:evenodd;stroke-linejoin:round;stroke-miterlimit:2;">
    <g transform="matrix(0,1,1,0,348.286,0)">
        <path d="M17.386,-17.386C7.784,-17.386 0,-9.602 0,-0C0,9.602 7.784,17.386 17.386,17.386C26.988,17.386 34.772,9.602 34.772,-0C34.772,-9.602 26.988,-17.386 17.386,-17.386" style="fill:rgb(198,198,198);"/>
    </g>
    <g transform="matrix(1,0,0,1,339.327,18.4929)">
        <path d="M0,-2.279L0,-5.721L0.454,-5.721C1.336,-5.732 1.952,-5.608 2.301,-5.35C2.65,-5.093 2.818,-4.639 2.804,-3.99C2.818,-3.341 2.656,-2.891 2.319,-2.64C1.983,-2.388 1.388,-2.268 0.536,-2.279L0,-2.279ZM-3.211,5.896L0,5.896L0,0.17L0.99,0.17C1.449,0.17 1.891,0.144 2.314,0.093C2.738,0.041 3.107,-0.036 3.422,-0.139C4.222,-0.398 4.849,-0.872 5.302,-1.562C5.755,-2.251 5.986,-3.081 5.994,-4.052C5.991,-4.637 5.863,-5.198 5.611,-5.736C5.358,-6.274 4.999,-6.743 4.533,-7.141C4.098,-7.517 3.609,-7.784 3.066,-7.941C2.523,-8.099 1.817,-8.175 0.948,-8.17L-3.211,-8.17L-3.211,5.896Z" style="fill:white;"/>
    </g>
    <g transform="matrix(1,0,0,1,348.022,10.3227)">
        <path d="M0,14.066L3.005,14.066L3.005,5.066L3.046,5.066L5.786,10.4L6.364,10.4L9.146,5.066L9.187,5.066L9.187,14.066L12.212,14.066L12.212,0L9.249,0L6.116,5.787L2.902,0L0,0L0,14.066Z" style="fill:white;"/>
    </g>
    <g transform="matrix(1,0,0,1,9.02,32.6471)">
        <path d="M0,23.617L-9.02,0L0.176,0L2.676,8.551C3.04,9.796 3.315,10.853 3.491,11.712C3.667,12.571 3.783,13.38 3.838,14.129L3.998,14.129C4.108,13.337 4.262,12.5 4.46,11.613C4.658,10.732 4.912,9.774 5.226,8.744L7.869,0L16.888,0L7.902,23.617L0,23.617Z" style="fill:rgb(135,135,135);fill-rule:nonzero;"/>
    </g>
    <g transform="matrix(1,0,0,1,-80.9767,-397.419)">
        <rect x="108.096" y="430.067" width="8.629" height="23.617" style="fill:rgb(135,135,135);"/>
    </g>
    <g transform="matrix(1,0,0,1,57.7076,46.9521)">
        <path d="M0,-4.933C-0.776,-5.677 -1.564,-6.233 -2.373,-6.596C-3.177,-6.965 -4.031,-7.147 -4.923,-7.147C-6.311,-7.147 -7.428,-6.717 -8.271,-5.864C-9.113,-5.01 -9.537,-3.87 -9.537,-2.45C-9.537,-1.062 -9.135,0.045 -8.326,0.871C-7.522,1.702 -6.437,2.115 -5.083,2.115C-4.268,2.115 -3.436,1.939 -2.593,1.592C-1.746,1.239 -0.826,0.689 0.176,-0.076L-0.099,8.811C-1.024,9.185 -1.949,9.472 -2.874,9.659C-3.8,9.846 -4.725,9.939 -5.65,9.939C-6.8,9.939 -7.907,9.813 -8.97,9.554C-10.038,9.296 -10.996,8.926 -11.861,8.453C-13.948,7.253 -15.522,5.727 -16.591,3.888C-17.665,2.049 -18.199,-0.06 -18.199,-2.45C-18.199,-4.212 -17.896,-5.847 -17.285,-7.356C-16.679,-8.859 -15.792,-10.186 -14.636,-11.337C-13.463,-12.499 -12.103,-13.38 -10.561,-13.975C-9.014,-14.575 -7.346,-14.872 -5.551,-14.872C-4.592,-14.872 -3.651,-14.773 -2.72,-14.575C-1.79,-14.377 -0.881,-14.079 0,-13.677L0,-4.933Z" style="fill:rgb(135,135,135);fill-rule:nonzero;"/>
    </g>
    <g transform="matrix(1,0,0,1,78.8245,46.9521)">
        <path d="M0,-4.933C-0.776,-5.677 -1.564,-6.233 -2.373,-6.596C-3.177,-6.965 -4.031,-7.147 -4.923,-7.147C-6.31,-7.147 -7.428,-6.717 -8.271,-5.864C-9.113,-5.01 -9.537,-3.87 -9.537,-2.45C-9.537,-1.062 -9.135,0.045 -8.326,0.871C-7.522,1.702 -6.437,2.115 -5.083,2.115C-4.268,2.115 -3.436,1.939 -2.593,1.592C-1.745,1.239 -0.826,0.689 0.176,-0.076L-0.099,8.811C-1.024,9.185 -1.949,9.472 -2.874,9.659C-3.799,9.846 -4.724,9.939 -5.649,9.939C-6.8,9.939 -7.907,9.813 -8.97,9.554C-10.038,9.296 -10.996,8.926 -11.861,8.453C-13.947,7.253 -15.522,5.727 -16.591,3.888C-17.665,2.049 -18.199,-0.06 -18.199,-2.45C-18.199,-4.212 -17.896,-5.847 -17.285,-7.356C-16.679,-8.859 -15.792,-10.186 -14.636,-11.337C-13.463,-12.499 -12.103,-13.38 -10.561,-13.975C-9.014,-14.575 -7.345,-14.872 -5.55,-14.872C-4.592,-14.872 -3.651,-14.773 -2.72,-14.575C-1.789,-14.377 -0.881,-14.079 0,-13.677L0,-4.933Z" style="fill:rgb(135,135,135);fill-rule:nonzero;"/>
    </g>
    <g transform="matrix(1,0,0,1,106.99,44.5022)">
        <path d="M0,0C0,1.729 -0.308,3.343 -0.92,4.829C-1.531,6.322 -2.428,7.654 -3.612,8.827C-4.796,9.978 -6.162,10.859 -7.703,11.47C-9.245,12.081 -10.892,12.389 -12.632,12.389C-14.393,12.389 -16.046,12.081 -17.582,11.47C-19.124,10.859 -20.489,9.967 -21.684,8.794C-22.852,7.654 -23.744,6.338 -24.344,4.857C-24.944,3.37 -25.247,1.751 -25.247,0C-25.247,-1.751 -24.944,-3.375 -24.344,-4.873C-23.744,-6.365 -22.852,-7.687 -21.684,-8.826C-20.5,-9.983 -19.14,-10.869 -17.598,-11.475C-16.062,-12.086 -14.404,-12.389 -12.632,-12.389C-10.858,-12.389 -9.201,-12.086 -7.665,-11.475C-6.123,-10.869 -4.757,-9.983 -3.563,-8.826C-2.406,-7.676 -1.52,-6.349 -0.914,-4.857C-0.303,-3.359 0,-1.74 0,0M-12.632,4.455C-11.437,4.455 -10.479,4.047 -9.752,3.238C-9.025,2.423 -8.662,1.349 -8.662,0C-8.662,-1.354 -9.025,-2.439 -9.752,-3.265C-10.479,-4.085 -11.437,-4.499 -12.632,-4.499C-13.827,-4.499 -14.79,-4.085 -15.522,-3.254C-16.255,-2.428 -16.618,-1.343 -16.618,0C-16.618,1.349 -16.255,2.423 -15.522,3.238C-14.79,4.047 -13.827,4.455 -12.632,4.455" style="fill:rgb(135,135,135);fill-rule:nonzero;"/>
    </g>
    <g transform="matrix(1,0,0,1,124.131,32.6471)">
        <path d="M0,23.617L-9.02,0L0.176,0L2.676,8.551C3.04,9.796 3.315,10.853 3.491,11.712C3.667,12.571 3.783,13.38 3.838,14.129L3.998,14.129C4.108,13.337 4.262,12.5 4.46,11.613C4.658,10.732 4.912,9.774 5.226,8.744L7.869,0L16.888,0L7.902,23.617L0,23.617Z" style="fill:rgb(135,135,135);fill-rule:nonzero;"/>
    </g>
    <g transform="matrix(1,0,0,1,165.913,44.5022)">
        <path d="M0,0C0,1.729 -0.308,3.343 -0.92,4.829C-1.531,6.322 -2.428,7.654 -3.612,8.827C-4.796,9.978 -6.162,10.859 -7.704,11.47C-9.245,12.081 -10.892,12.389 -12.632,12.389C-14.394,12.389 -16.046,12.081 -17.582,11.47C-19.124,10.859 -20.489,9.967 -21.684,8.794C-22.852,7.654 -23.744,6.338 -24.344,4.857C-24.944,3.37 -25.247,1.751 -25.247,0C-25.247,-1.751 -24.944,-3.375 -24.344,-4.873C-23.744,-6.365 -22.852,-7.687 -21.684,-8.826C-20.5,-9.983 -19.14,-10.869 -17.598,-11.475C-16.062,-12.086 -14.405,-12.389 -12.632,-12.389C-10.858,-12.389 -9.201,-12.086 -7.665,-11.475C-6.123,-10.869 -4.757,-9.983 -3.563,-8.826C-2.406,-7.676 -1.52,-6.349 -0.914,-4.857C-0.303,-3.359 0,-1.74 0,0M-12.632,4.455C-11.437,4.455 -10.479,4.047 -9.752,3.238C-9.025,2.423 -8.662,1.349 -8.662,0C-8.662,-1.354 -9.025,-2.439 -9.752,-3.265C-10.479,-4.085 -11.437,-4.499 -12.632,-4.499C-13.827,-4.499 -14.79,-4.085 -15.523,-3.254C-16.255,-2.428 -16.618,-1.343 -16.618,0C-16.618,1.349 -16.255,2.423 -15.523,3.238C-14.79,4.047 -13.827,4.455 -12.632,4.455" style="fill:rgb(135,135,135);fill-rule:nonzero;"/>
    </g>
    <g transform="matrix(1,0,0,1,169.476,32.6471)">
        <path d="M0,23.617L0,0L8.326,0L15.666,12.356C15.566,11.811 15.5,11.2 15.462,10.534C15.423,9.868 15.407,8.998 15.407,7.918L15.407,0L23.584,0L23.584,23.617L15.197,23.617L7.934,11.354C8.023,11.883 8.083,12.45 8.127,13.061C8.171,13.667 8.193,14.344 8.193,15.099L8.193,23.617L0,23.617Z" style="fill:rgb(135,135,135);fill-rule:nonzero;"/>
    </g>
    <g transform="matrix(1,0,0,1,205.328,32.6471)">
        <path d="M0,23.617L0,0L11.305,0C13.727,0 15.616,0.567 16.97,1.702C18.325,2.836 19.002,4.416 19.002,6.437C19.002,7.725 18.683,8.799 18.044,9.653C17.4,10.512 16.497,11.068 15.324,11.327C16.927,11.657 18.121,12.285 18.903,13.21C19.691,14.135 20.082,15.38 20.082,16.938C20.082,19.146 19.338,20.809 17.846,21.932C16.359,23.055 14.168,23.617 11.277,23.617L0,23.617ZM7.968,5.617L7.968,8.921L9.08,8.921C9.768,8.921 10.292,8.777 10.655,8.491C11.013,8.21 11.194,7.797 11.194,7.263C11.194,6.723 11.013,6.316 10.655,6.035C10.292,5.754 9.768,5.617 9.08,5.617L7.968,5.617ZM7.968,14.003L7.968,17.775L9.388,17.775C10.236,17.775 10.892,17.609 11.349,17.285C11.805,16.954 12.031,16.492 12.031,15.886C12.031,15.275 11.805,14.807 11.349,14.487C10.892,14.163 10.236,14.003 9.388,14.003L7.968,14.003Z" style="fill:rgb(135,135,135);fill-rule:nonzero;"/>
    </g>
    <g transform="matrix(1,0,0,1,233.625,54.5178)">
        <path d="M0,-27.399C0,-28.027 0.242,-28.577 0.727,-29.056C1.211,-29.536 1.767,-29.773 2.401,-29.773C3.072,-29.773 3.634,-29.541 4.097,-29.079C4.559,-28.616 4.791,-28.06 4.791,-27.399C4.791,-26.694 4.565,-26.111 4.119,-25.659C3.673,-25.208 3.1,-24.982 2.401,-24.982C1.734,-24.982 1.167,-25.213 0.699,-25.681C0.231,-26.149 0,-26.722 0,-27.399M6.277,-27.399C6.277,-28.027 6.519,-28.577 7.004,-29.056C7.489,-29.536 8.05,-29.773 8.694,-29.773C9.355,-29.773 9.911,-29.541 10.374,-29.079C10.837,-28.616 11.068,-28.06 11.068,-27.399C11.068,-26.694 10.842,-26.111 10.396,-25.659C9.95,-25.208 9.383,-24.982 8.694,-24.982C8.028,-24.982 7.461,-25.213 6.987,-25.681C6.514,-26.149 6.277,-26.722 6.277,-27.399M-5.418,-9.063L-5.418,-21.871L3.067,-21.871L3.067,-9.002C3.067,-7.505 3.243,-6.475 3.601,-5.913C3.953,-5.346 4.559,-5.065 5.423,-5.065C6.272,-5.065 6.877,-5.357 7.241,-5.935C7.61,-6.519 7.791,-7.537 7.791,-9.002L7.791,-21.871L16.277,-21.871L16.277,-9.063C16.277,-7.389 16.167,-6.007 15.946,-4.917C15.726,-3.832 15.374,-2.923 14.889,-2.191C13.942,-0.721 12.654,0.414 11.018,1.196C9.383,1.983 7.516,2.374 5.423,2.374C3.315,2.374 1.443,1.983 -0.193,1.196C-1.828,0.414 -3.117,-0.721 -4.064,-2.191C-4.537,-2.912 -4.879,-3.81 -5.094,-4.889C-5.308,-5.963 -5.418,-7.356 -5.418,-9.063" style="fill:rgb(135,135,135);fill-rule:nonzero;"/>
    </g>
    <g transform="matrix(1,0,0,1,254.302,32.6471)">
        <path d="M0,23.617L0,0L8.502,0L8.502,15.952L16.761,15.952L16.761,23.617L0,23.617Z" style="fill:rgb(135,135,135);fill-rule:nonzero;"/>
    </g>
    <g transform="matrix(1,0,0,1,298.088,44.5022)">
        <path d="M0,0C0,1.729 -0.308,3.343 -0.92,4.829C-1.531,6.322 -2.428,7.654 -3.612,8.827C-4.796,9.978 -6.162,10.859 -7.703,11.47C-9.245,12.081 -10.892,12.389 -12.632,12.389C-14.393,12.389 -16.046,12.081 -17.582,11.47C-19.124,10.859 -20.489,9.967 -21.684,8.794C-22.852,7.654 -23.743,6.338 -24.344,4.857C-24.944,3.37 -25.247,1.751 -25.247,0C-25.247,-1.751 -24.944,-3.375 -24.344,-4.873C-23.743,-6.365 -22.852,-7.687 -21.684,-8.826C-20.5,-9.983 -19.14,-10.869 -17.598,-11.475C-16.062,-12.086 -14.405,-12.389 -12.632,-12.389C-10.858,-12.389 -9.201,-12.086 -7.665,-11.475C-6.123,-10.869 -4.757,-9.983 -3.563,-8.826C-2.406,-7.676 -1.52,-6.349 -0.914,-4.857C-0.303,-3.359 0,-1.74 0,0M-12.632,4.455C-11.437,4.455 -10.479,4.047 -9.752,3.238C-9.025,2.423 -8.662,1.349 -8.662,0C-8.662,-1.354 -9.025,-2.439 -9.752,-3.265C-10.479,-4.085 -11.437,-4.499 -12.632,-4.499C-13.827,-4.499 -14.79,-4.085 -15.522,-3.254C-16.255,-2.428 -16.618,-1.343 -16.618,0C-16.618,1.349 -16.255,2.423 -15.522,3.238C-14.79,4.047 -13.827,4.455 -12.632,4.455" style="fill:rgb(135,135,135);fill-rule:nonzero;"/>
    </g>
    <g transform="matrix(1,0,0,1,315.428,44.6007)">
        <path d="M0,-0.291C-0.033,0.485 -0.209,1.597 -0.529,3.051C-0.584,3.288 -0.628,3.475 -0.661,3.613L-2.434,11.663L-9.84,11.663L-16.745,-11.954L-8.227,-11.954L-6.371,-1.546C-6.211,-0.633 -6.085,0.199 -6.002,0.959C-5.914,1.719 -5.859,2.429 -5.837,3.095L-5.644,3.095C-5.622,2.159 -5.457,0.931 -5.143,-0.599C-5.121,-0.737 -5.099,-0.847 -5.083,-0.935L-2.836,-11.954L3.15,-11.954L5.391,-0.919C5.402,-0.853 5.424,-0.748 5.457,-0.599C5.765,0.942 5.93,2.17 5.952,3.095L6.151,3.095C6.167,2.429 6.222,1.719 6.31,0.959C6.393,0.199 6.519,-0.633 6.679,-1.546L8.535,-11.954L17.053,-11.954L10.148,11.663L2.742,11.663L0.969,3.613C0.936,3.475 0.892,3.283 0.842,3.035C0.518,1.592 0.341,0.485 0.308,-0.291L0,-0.291Z" style="fill:rgb(135,135,135);fill-rule:nonzero;"/>
    </g>
    <g transform="matrix(1,0,0,1,123.728,72.9138)">
        <path d="M0,6.619L-3.695,6.619L-3.695,1.068L9.355,1.068C9.377,1.553 9.394,1.911 9.405,2.148C9.416,2.385 9.421,2.594 9.421,2.781C9.421,4.136 9.289,5.369 9.031,6.487C8.777,7.605 8.397,8.596 7.902,9.455C6.701,11.476 5.143,13.023 3.243,14.097C1.338,15.165 -0.826,15.699 -3.243,15.699C-5.027,15.699 -6.69,15.402 -8.221,14.801C-9.752,14.207 -11.112,13.326 -12.296,12.164C-13.463,11.002 -14.355,9.675 -14.955,8.183C-15.555,6.685 -15.859,5.061 -15.859,3.31C-15.859,1.547 -15.555,-0.088 -14.944,-1.586C-14.339,-3.089 -13.452,-4.405 -12.29,-5.544C-11.123,-6.695 -9.763,-7.576 -8.226,-8.177C-6.69,-8.777 -5.027,-9.08 -3.243,-9.08C-0.82,-9.08 1.327,-8.551 3.21,-7.488C5.094,-6.431 6.63,-4.878 7.825,-2.835L0.259,-0.027C-0.137,-0.682 -0.617,-1.173 -1.178,-1.497C-1.74,-1.822 -2.379,-1.982 -3.1,-1.982C-4.355,-1.982 -5.363,-1.503 -6.107,-0.545C-6.855,0.413 -7.23,1.696 -7.23,3.31C-7.23,4.978 -6.855,6.272 -6.101,7.192C-5.347,8.111 -4.284,8.568 -2.907,8.568C-2.087,8.568 -1.421,8.397 -0.914,8.051C-0.402,7.709 -0.099,7.23 0,6.619" style="fill:rgb(135,135,135);fill-rule:nonzero;"/>
    </g>
    <g transform="matrix(1,0,0,1,139.509,64.3681)">
        <path d="M0,23.617L0,13.182L-7.907,0L1.773,0L3.761,4.582C3.943,4.978 4.158,5.573 4.405,6.355C4.427,6.432 4.444,6.492 4.455,6.531C4.57,6.156 4.774,5.606 5.066,4.873C5.121,4.741 5.16,4.653 5.182,4.598L7.131,0L16.745,0L8.552,13.182L8.552,23.617L0,23.617Z" style="fill:rgb(135,135,135);fill-rule:nonzero;"/>
    </g>
    <g transform="matrix(1,0,0,1,178.302,64.3681)">
        <path d="M0,23.617L-1.03,14.262C-1.096,13.54 -1.162,12.824 -1.223,12.109C-1.289,11.393 -1.344,10.672 -1.388,9.956C-1.481,10.633 -1.619,11.349 -1.795,12.109C-1.971,12.863 -2.191,13.673 -2.45,14.537L-5.16,23.617L-10.209,23.617L-12.918,14.537C-13.188,13.673 -13.408,12.863 -13.579,12.109C-13.749,11.349 -13.887,10.633 -13.981,9.956C-14.036,10.683 -14.091,11.404 -14.151,12.114C-14.212,12.824 -14.273,13.54 -14.339,14.262L-15.368,23.617L-23.694,23.617L-19.663,0L-10.903,0L-9.223,5.842C-9.174,6.024 -9.091,6.299 -8.981,6.663C-8.271,9.124 -7.835,11.151 -7.676,12.742L-7.533,12.742C-7.401,11.745 -7.208,10.677 -6.949,9.548C-6.69,8.419 -6.349,7.153 -5.919,5.743L-4.157,0L4.581,0L8.326,23.617L0,23.617Z" style="fill:rgb(135,135,135);fill-rule:nonzero;"/>
    </g>
    <g transform="matrix(1,0,0,1,188.962,64.3681)">
        <path d="M0,23.617L0,0L8.326,0L15.666,12.356C15.566,11.811 15.5,11.2 15.462,10.534C15.423,9.868 15.407,8.998 15.407,7.918L15.407,0L23.584,0L23.584,23.617L15.197,23.617L7.935,11.354C8.023,11.883 8.083,12.45 8.127,13.061C8.172,13.667 8.193,14.344 8.193,15.099L8.193,23.617L0,23.617Z" style="fill:rgb(135,135,135);fill-rule:nonzero;"/>
    </g>
    <g transform="matrix(1,0,0,1,213.758,64.3681)">
        <path d="M0,23.617L8.419,0L17.874,0L26.134,23.617L17.004,23.617L16.244,20.649L9.84,20.649L9.113,23.617L0,23.617ZM11.261,15.033L14.79,15.033L14.069,12.356C13.711,11.002 13.469,9.956 13.342,9.223C13.21,8.497 13.133,7.808 13.1,7.164L12.957,7.164C12.924,7.808 12.841,8.497 12.714,9.223C12.582,9.956 12.34,11.002 11.988,12.356L11.261,15.033Z" style="fill:rgb(135,135,135);fill-rule:nonzero;"/>
    </g>
    <g transform="matrix(1,0,0,1,240.045,66.4767)">
        <path d="M0,19.493L2.709,12.88C3.926,13.728 5.005,14.35 5.958,14.741C6.911,15.132 7.803,15.33 8.629,15.33C9.212,15.33 9.669,15.22 10,15C10.335,14.779 10.501,14.482 10.501,14.102C10.501,13.447 9.669,12.946 8.001,12.605C7.461,12.483 7.043,12.395 6.74,12.329C4.978,11.9 3.629,11.134 2.693,10.039C1.757,8.943 1.289,7.577 1.289,5.942C1.289,3.403 2.197,1.338 4.014,-0.253C5.831,-1.844 8.216,-2.643 11.161,-2.643C12.521,-2.643 13.854,-2.466 15.164,-2.108C16.475,-1.756 17.802,-1.216 19.135,-0.495L16.552,5.683C15.737,5.083 14.917,4.62 14.091,4.301C13.27,3.987 12.472,3.827 11.696,3.827C11.106,3.827 10.649,3.926 10.325,4.125C10,4.323 9.84,4.604 9.84,4.956C9.84,5.622 11.018,6.211 13.375,6.713C13.749,6.801 14.041,6.867 14.245,6.911C15.869,7.274 17.147,8.023 18.083,9.152C19.019,10.281 19.487,11.646 19.487,13.249C19.487,15.859 18.546,17.995 16.657,19.653C14.768,21.31 12.312,22.136 9.289,22.136C7.742,22.136 6.195,21.916 4.647,21.475C3.095,21.035 1.547,20.374 0,19.493" style="fill:rgb(135,135,135);fill-rule:nonzero;"/>
    </g>
    <g transform="matrix(1,0,0,1,-80.9767,-333.977)">
        <rect x="343.18" y="398.346" width="8.629" height="23.617" style="fill:rgb(135,135,135);"/>
    </g>
    <g transform="matrix(1,0,0,1,274.829,75.805)">
        <path d="M0,1.371L0,-11.437L8.485,-11.437L8.485,1.432C8.485,2.929 8.662,3.959 9.02,4.521C9.372,5.088 9.978,5.369 10.842,5.369C11.69,5.369 12.296,5.077 12.659,4.499C13.028,3.915 13.21,2.896 13.21,1.432L13.21,-11.437L21.695,-11.437L21.695,1.371C21.695,3.045 21.585,4.427 21.365,5.517C21.145,6.602 20.792,7.511 20.308,8.243C19.36,9.713 18.072,10.848 16.437,11.629C14.801,12.417 12.935,12.808 10.842,12.808C8.733,12.808 6.861,12.417 5.226,11.629C3.59,10.848 2.302,9.713 1.355,8.243C0.881,7.522 0.54,6.624 0.325,5.545C0.11,4.471 0,3.078 0,1.371" style="fill:rgb(135,135,135);fill-rule:nonzero;"/>
    </g>
    <g transform="matrix(1,0,0,1,322.509,64.3681)">
        <path d="M0,23.617L-1.03,14.262C-1.096,13.54 -1.162,12.824 -1.223,12.109C-1.289,11.393 -1.344,10.672 -1.388,9.956C-1.481,10.633 -1.619,11.349 -1.795,12.109C-1.971,12.863 -2.191,13.673 -2.45,14.537L-5.16,23.617L-10.209,23.617L-12.918,14.537C-13.188,13.673 -13.408,12.863 -13.579,12.109C-13.749,11.349 -13.887,10.633 -13.981,9.956C-14.036,10.683 -14.091,11.404 -14.151,12.114C-14.212,12.824 -14.273,13.54 -14.339,14.262L-15.368,23.617L-23.694,23.617L-19.663,0L-10.903,0L-9.223,5.842C-9.174,6.024 -9.091,6.299 -8.981,6.663C-8.271,9.124 -7.835,11.151 -7.676,12.742L-7.533,12.742C-7.401,11.745 -7.208,10.677 -6.949,9.548C-6.69,8.419 -6.349,7.153 -5.919,5.743L-4.157,0L4.581,0L8.326,23.617L0,23.617Z" style="fill:rgb(135,135,135);fill-rule:nonzero;"/>
    </g>
    <g transform="matrix(1,0,0,1,196.206,102.322)">
        <path d="M0,13.996L2.241,11.466C2.526,12.16 2.978,12.704 3.607,13.104C4.23,13.504 4.933,13.702 5.715,13.702C6.66,13.702 7.407,13.478 7.956,13.034C8.505,12.586 8.777,11.988 8.777,11.233C8.777,10.341 7.864,9.454 6.04,8.571C5.447,8.285 4.982,8.052 4.635,7.872C2.987,7.015 1.845,6.176 1.212,5.359C0.576,4.538 0.259,3.562 0.259,2.429C0.259,0.874 0.874,-0.4 2.104,-1.401C3.339,-2.399 4.933,-2.9 6.897,-2.9C8.039,-2.9 9.023,-2.702 9.854,-2.302C10.68,-1.902 11.413,-1.279 12.046,-0.426L9.665,1.849C9.384,1.3 9.006,0.892 8.54,0.619C8.074,0.351 7.508,0.215 6.849,0.215C6.049,0.215 5.408,0.413 4.92,0.813C4.433,1.212 4.186,1.731 4.186,2.363C4.186,3.36 5.157,4.27 7.095,5.091C7.477,5.258 7.776,5.386 7.982,5.478C9.577,6.207 10.759,7.033 11.527,7.951C12.296,8.869 12.678,9.915 12.678,11.092C12.678,12.858 12.077,14.268 10.868,15.318C9.665,16.368 8.044,16.896 6.01,16.896C4.569,16.896 3.334,16.645 2.302,16.149C1.274,15.652 0.505,14.932 0,13.996" style="fill:rgb(178,178,178);fill-rule:nonzero;"/>
    </g>
    <g transform="matrix(1,0,0,1,212.306,101.895)">
        <path d="M0,16.821L0,7.064L-1.762,7.064L-1.762,4.196L0,4.196L0,0L3.668,0L3.668,4.196L5.43,4.196L5.43,7.064L3.668,7.064L3.668,16.821L0,16.821Z" style="fill:rgb(178,178,178);fill-rule:nonzero;"/>
    </g>
    <g transform="matrix(1,0,0,1,232.654,106.165)">
        <path d="M0,12.551L-3.554,12.551L-3.501,10.737C-3.998,11.536 -4.595,12.12 -5.298,12.494C-5.996,12.867 -6.849,13.052 -7.85,13.052C-9.524,13.052 -10.872,12.428 -11.901,11.185C-12.924,9.941 -13.438,8.298 -13.438,6.256C-13.438,4.13 -12.933,2.469 -11.927,1.283C-10.917,0.092 -9.515,-0.501 -7.723,-0.501C-6.787,-0.501 -5.966,-0.29 -5.258,0.128C-4.551,0.549 -3.954,1.178 -3.475,2.008L-3.475,-0.074L0,-0.074L0,12.551ZM-3.347,6.216C-3.347,5.083 -3.633,4.186 -4.204,3.528C-4.771,2.864 -5.544,2.535 -6.51,2.535C-7.508,2.535 -8.29,2.864 -8.861,3.519C-9.432,4.178 -9.717,5.074 -9.717,6.216C-9.717,7.359 -9.436,8.246 -8.874,8.883C-8.311,9.52 -7.534,9.836 -6.537,9.836C-5.526,9.836 -4.74,9.52 -4.182,8.883C-3.624,8.246 -3.347,7.359 -3.347,6.216" style="fill:rgb(178,178,178);fill-rule:nonzero;"/>
    </g>
    <g transform="matrix(1,0,0,1,236.099,98.7674)">
        <path d="M0,19.949L0,0L3.589,0L3.589,7.091C3.589,7.486 3.576,7.877 3.554,8.268C3.527,8.659 3.488,9.041 3.435,9.41C4.191,8.523 4.951,7.886 5.706,7.49C6.466,7.095 7.314,6.897 8.25,6.897C9.23,6.897 10.056,7.064 10.728,7.398C11.4,7.732 11.922,8.237 12.292,8.905C12.48,9.256 12.617,9.656 12.696,10.096C12.779,10.539 12.819,11.233 12.819,12.173L12.819,19.949L9.151,19.949L9.151,13.707C9.151,12.156 8.97,11.128 8.61,10.631C8.25,10.135 7.631,9.885 6.756,9.885C6.251,9.885 5.785,9.99 5.359,10.201C4.938,10.412 4.582,10.706 4.301,11.093C4.077,11.396 3.914,11.738 3.817,12.125C3.716,12.511 3.668,13.096 3.668,13.887L3.668,19.949L0,19.949Z" style="fill:rgb(178,178,178);fill-rule:nonzero;"/>
    </g>
    <g transform="matrix(1,0,0,1,252.393,105.664)">
        <path d="M0,13.052L0,0.427L3.589,0.427L3.589,2.408C4.252,1.586 4.96,0.976 5.72,0.585C6.48,0.194 7.323,0 8.25,0C9.23,0 10.051,0.167 10.714,0.497C11.378,0.826 11.905,1.331 12.292,2.008C12.48,2.359 12.617,2.759 12.696,3.199C12.779,3.642 12.819,4.336 12.819,5.276L12.819,13.052L9.151,13.052L9.151,6.81C9.151,5.259 8.971,4.231 8.61,3.734C8.25,3.238 7.631,2.988 6.756,2.988C6.251,2.988 5.785,3.093 5.359,3.304C4.938,3.515 4.582,3.809 4.301,4.196C4.077,4.499 3.914,4.841 3.818,5.228C3.716,5.614 3.668,6.199 3.668,6.99L3.668,13.052L0,13.052Z" style="fill:rgb(178,178,178);fill-rule:nonzero;"/>
    </g>
    <g transform="matrix(1,0,0,1,267.452,108.331)">
        <path d="M0,8.171L2.82,6.717C2.913,7.205 3.167,7.591 3.58,7.872C3.989,8.158 4.498,8.299 5.109,8.299C5.711,8.299 6.181,8.189 6.524,7.969C6.866,7.754 7.037,7.451 7.037,7.064C7.037,6.454 6.427,5.944 5.21,5.531C4.832,5.404 4.533,5.298 4.309,5.21C2.825,4.652 1.801,4.09 1.23,3.528C0.659,2.961 0.373,2.263 0.373,1.428C0.373,0.193 0.857,-0.808 1.827,-1.568C2.798,-2.333 4.077,-2.715 5.662,-2.715C6.796,-2.715 7.776,-2.486 8.601,-2.034C9.432,-1.582 10.033,-0.935 10.411,-0.105L7.723,1.234C7.578,0.764 7.323,0.404 6.963,0.158C6.603,-0.083 6.15,-0.206 5.61,-0.206C5.069,-0.206 4.635,-0.096 4.296,0.128C3.962,0.351 3.796,0.641 3.796,1.002C3.796,1.63 4.626,2.214 6.291,2.755C6.488,2.812 6.638,2.86 6.743,2.895C8.123,3.348 9.107,3.879 9.691,4.485C10.275,5.087 10.565,5.86 10.565,6.792C10.565,8.048 10.082,9.041 9.111,9.779C8.14,10.517 6.831,10.886 5.188,10.886C3.883,10.886 2.767,10.644 1.845,10.161C0.922,9.673 0.307,9.01 0,8.171" style="fill:rgb(178,178,178);fill-rule:nonzero;"/>
    </g>
    <g transform="matrix(1,0,0,1,293.362,99.2684)">
        <path d="M0,19.448L-3.554,19.448L-3.501,17.634C-3.998,18.433 -4.595,19.017 -5.298,19.391C-5.997,19.764 -6.849,19.949 -7.85,19.949C-9.524,19.949 -10.873,19.325 -11.901,18.082C-12.924,16.838 -13.438,15.195 -13.438,13.153C-13.438,11.018 -12.933,9.353 -11.927,8.158C-10.917,6.967 -9.515,6.37 -7.723,6.37C-6.805,6.37 -5.997,6.581 -5.302,6.998C-4.608,7.42 -3.954,8.083 -3.348,8.993C-3.387,8.685 -3.422,8.347 -3.444,7.973C-3.466,7.6 -3.475,7.174 -3.475,6.691L-3.475,-0.501L0,-0.501L0,19.448ZM-3.348,13.113C-3.348,11.98 -3.633,11.083 -4.204,10.425C-4.771,9.761 -5.544,9.432 -6.51,9.432C-7.508,9.432 -8.29,9.757 -8.861,10.403C-9.432,11.053 -9.717,11.949 -9.717,13.087C-9.717,14.229 -9.436,15.125 -8.874,15.767C-8.311,16.412 -7.534,16.733 -6.537,16.733C-5.527,16.733 -4.74,16.417 -4.182,15.78C-3.624,15.143 -3.348,14.256 -3.348,13.113" style="fill:rgb(178,178,178);fill-rule:nonzero;"/>
    </g>
    <g transform="matrix(1,0,0,1,310.231,112.435)">
        <path d="M0,0.013C0,1.95 -0.663,3.567 -1.99,4.854C-3.312,6.141 -4.995,6.783 -7.029,6.783C-9.076,6.783 -10.767,6.141 -12.098,4.854C-13.429,3.567 -14.093,1.95 -14.093,0.013C-14.093,-1.916 -13.425,-3.532 -12.085,-4.828C-10.745,-6.124 -9.058,-6.77 -7.029,-6.77C-4.986,-6.77 -3.303,-6.129 -1.981,-4.85C-0.659,-3.572 0,-1.951 0,0.013M-3.734,-0.009C-3.734,-1.041 -4.033,-1.863 -4.635,-2.478C-5.237,-3.089 -6.04,-3.396 -7.051,-3.396C-8.065,-3.396 -8.865,-3.093 -9.458,-2.482C-10.051,-1.872 -10.346,-1.05 -10.346,-0.009C-10.346,1.019 -10.051,1.841 -9.458,2.46C-8.865,3.079 -8.065,3.387 -7.051,3.387C-6.049,3.387 -5.245,3.079 -4.639,2.46C-4.037,1.841 -3.734,1.019 -3.734,-0.009" style="fill:rgb(178,178,178);fill-rule:nonzero;"/>
    </g>
    <g transform="matrix(1,0,0,1,316.536,115.048)">
        <path d="M0,-5.715C0.369,-6.945 0.896,-7.859 1.586,-8.47C2.28,-9.08 3.132,-9.383 4.155,-9.383C4.384,-9.383 4.766,-9.339 5.298,-9.256C5.403,-9.238 5.478,-9.225 5.531,-9.216L4.977,-5.276C4.705,-5.39 4.428,-5.474 4.147,-5.53C3.87,-5.588 3.576,-5.614 3.268,-5.614C2.153,-5.614 1.348,-5.328 0.861,-4.758C0.373,-4.186 0.127,-3.233 0.127,-1.893L0.127,3.668L-3.541,3.668L-3.541,-8.957L0.074,-8.957L0,-5.715Z" style="fill:rgb(178,178,178);fill-rule:nonzero;"/>
    </g>
    <g transform="matrix(1,0,0,1,324.18,98.4954)">
        <path d="M0,20.221L0,10.464L-1.634,10.464L-1.634,7.596L0,7.596L0,4.749C0,3.049 0.391,1.832 1.173,1.098C1.951,0.365 3.238,0 5.03,0C5.228,0 5.461,0.017 5.72,0.057C5.983,0.096 6.322,0.167 6.743,0.268L6.743,3.189C6.519,3.071 6.304,2.983 6.102,2.926C5.896,2.868 5.68,2.842 5.456,2.842C4.815,2.842 4.354,3.014 4.081,3.352C3.805,3.69 3.668,4.274 3.668,5.109L3.668,7.596L6.01,7.596L6.01,10.464L3.668,10.464L3.668,20.221L0,20.221Z" style="fill:rgb(178,178,178);fill-rule:nonzero;"/>
    </g>
    <g transform="matrix(1,0,0,1,433.326,130.773)">
        <path d="M0,-113.387L-62.519,-113.387C-62.519,-100.949 -72.602,-90.866 -85.04,-90.866L-85.04,0L-56.693,-28.347L0,-28.347L0,-113.387Z" style="fill:rgb(227,227,227);"/>
    </g>
    <g transform="matrix(1,0,0,1,374.85,47.7373)">
        <path d="M0,-30.351C0,-15.764 -11.829,-3.934 -26.417,-3.934L-26.563,-3.936L-26.563,-0.002L-26.417,0C-9.657,0 3.934,-13.591 3.934,-30.351L0,-30.351Z" style="fill:white;"/>
    </g>
    <g transform="matrix(1,0,0,1,348.433,21.3202)">
        <path d="M0,30.352C18.932,30.352 34.286,14.999 34.286,-3.934L38.22,-3.934C38.22,17.171 21.105,34.286 0,34.286L-0.146,34.284L-0.146,30.35L0,30.352Z" style="fill:white;"/>
    </g>
    <g transform="matrix(1,0,0,1,348.433,21.3199)">
        <path d="M0,38.221C23.278,38.221 42.155,19.344 42.155,-3.933L42.155,-3.934L46.089,-3.934L46.089,-3.933C46.089,21.517 25.45,42.155 0,42.155L-0.146,42.153L-0.146,38.219L0,38.221Z" style="fill:white;"/>
    </g>
    <g transform="matrix(1,0,0,1,369.892,85.3174)">
        <path d="M0,-50.434C3.42,-50.434 6.84,-50.431 10.26,-50.437C10.792,-50.438 11.316,-50.399 11.83,-50.268C12.309,-50.147 12.714,-49.931 12.688,-49.341C12.664,-48.767 12.377,-48.401 11.813,-48.246C11.314,-48.109 10.806,-48.154 10.302,-48.125C8.558,-48.024 7.628,-47.181 7.499,-45.474C7.456,-44.897 7.562,-44.296 7.675,-43.72C7.979,-42.163 8.502,-40.664 8.996,-39.161C11.874,-30.398 14.772,-21.64 17.669,-12.882C18.185,-11.319 18.731,-9.765 19.257,-8.205C19.476,-7.555 19.388,-7.454 18.711,-7.535C16.35,-7.815 14.19,-8.729 12.042,-9.668C10.515,-10.335 9.021,-11.078 7.502,-11.765C7.141,-11.928 7.039,-12.233 6.918,-12.545C5.439,-16.364 3.973,-20.187 2.483,-24.001C-0.012,-30.391 -2.456,-36.802 -5.111,-43.129C-5.512,-44.083 -6.013,-44.988 -6.51,-45.896C-7.349,-47.43 -8.651,-48.171 -10.365,-48.253C-10.79,-48.274 -11.209,-48.324 -11.602,-48.489C-12.003,-48.657 -12.262,-48.942 -12.243,-49.409C-12.222,-49.89 -11.972,-50.187 -11.517,-50.334C-11.209,-50.434 -10.894,-50.434 -10.577,-50.434L0,-50.434ZM-5.6,0.489C-4.913,-0.818 -4.084,-1.935 -3.117,-2.933C-2.34,-3.735 -1.784,-4.625 -1.601,-5.721C-1.317,-7.413 -0.26,-8.458 1.23,-9.115C3.877,-10.284 6.475,-10.146 9.021,-8.757C11.874,-7.201 14.866,-6.015 18.098,-5.512C18.81,-5.401 19.53,-5.422 20.247,-5.468C20.928,-5.511 21.291,-5.925 21.493,-6.547C22.246,-8.858 22.805,-11.22 23.379,-13.579C25.149,-20.837 26.766,-28.137 28.875,-35.307C30.301,-40.155 32.314,-44.75 35.372,-48.822C37.54,-51.709 40.126,-54.138 43.351,-55.821C45.678,-57.035 48.161,-57.745 50.769,-58.043C51.864,-58.169 52.959,-58.164 54.056,-58.162C54.161,-58.162 54.268,-58.166 54.372,-58.156C54.866,-58.109 55.409,-58.053 55.544,-57.483C55.689,-56.866 55.173,-56.585 54.728,-56.35C54.416,-56.185 54.059,-56.059 53.71,-56.018C51.792,-55.795 50.477,-54.675 49.407,-53.183C47.99,-51.206 47.118,-48.954 46.236,-46.718C44.056,-41.195 42.311,-35.525 40.647,-29.83C39.156,-24.724 37.836,-19.571 36.445,-14.437C35.617,-11.38 34.402,-8.49 32.335,-6.025C31.374,-4.878 30.26,-3.929 28.921,-3.248C28.76,-3.166 28.553,-3.136 28.472,-2.922C28.59,-2.71 28.822,-2.707 29.012,-2.644C32.769,-1.407 36.585,-0.414 40.536,-0.048C42.449,0.13 44.367,0.194 46.286,-0.002C46.499,-0.024 46.8,-0.134 46.925,0.109C47.041,0.335 46.817,0.543 46.689,0.726C45.286,2.725 43.709,4.562 41.647,5.915C40.897,6.406 40.723,6.339 40.216,5.606C39.055,3.927 37.336,3.364 34.993,3.892C33.518,4.224 32.154,4.849 30.804,5.5C28.235,6.738 25.514,7.313 22.684,7.5C19.13,7.735 15.754,7.07 12.541,5.567C9.989,4.373 7.805,2.654 5.779,0.718C5.17,0.135 4.529,-0.416 3.889,-0.965C2.255,-2.367 0.445,-2.444 -1.431,-1.564C-2.615,-1.01 -3.751,-0.353 -4.909,0.256C-5.091,0.352 -5.248,0.51 -5.6,0.489" style="fill:rgb(148,186,30);fill-rule:nonzero;"/>
    </g>
</svg>
